<svg width="33" height="25" viewBox="0 0 33 25" fill="none" xmlns="http://www.w3.org/2000/svg">
<path d="M20.8333 16.6667H23.2372C23.6378 16.6667 24.0385 16.25 24.0385 15.8333V7.08333C24.0385 6.66667 23.6378 6.25 23.2372 6.25H20.8333C20.4327 6.25 20.0321 6.66667 20.0321 7.08333V15.8333C20.0321 16.25 20.4327 16.6667 20.8333 16.6667ZM26.8429 16.6667H29.2468C29.6474 16.6667 30.0481 16.25 30.0481 15.8333V0.833333C30.0481 0.416667 29.6474 0 29.2468 0H26.8429C26.4423 0 26.0417 0.416667 26.0417 0.833333V15.8333C26.0417 16.25 26.4423 16.6667 26.8429 16.6667ZM8.8141 16.6667H11.2179C11.6186 16.6667 12.0192 16.25 12.0192 15.8333V11.25C12.0192 10.8333 11.6186 10.4167 11.2179 10.4167H8.8141C8.41346 10.4167 8.01282 10.8333 8.01282 11.25V15.8333C8.01282 16.25 8.41346 16.6667 8.8141 16.6667ZM14.8237 16.6667H17.2276C17.6282 16.6667 18.0288 16.25 18.0288 15.8333V2.91667C18.0288 2.5 17.6282 2.08333 17.2276 2.08333H14.8237C14.4231 2.08333 14.0224 2.5 14.0224 2.91667V15.8333C14.0224 16.25 14.4231 16.6667 14.8237 16.6667ZM31.0497 20.8333H4.00641V1.04167C4.00641 0.466146 3.55819 0 3.00481 0H1.0016C0.448217 0 0 0.466146 0 1.04167V22.9167C0 24.0671 0.89706 25 2.00321 25H31.0497C31.6031 25 32.0513 24.5339 32.0513 23.9583V21.875C32.0513 21.2995 31.6031 20.8333 31.0497 20.8333Z" fill="white"/>
</svg>
        